<?xml version="1.0" standalone="no"?>
<!DOCTYPE svg PUBLIC "-//W3C//DTD SVG 20010904//EN"
 "http://www.w3.org/TR/2001/REC-SVG-20010904/DTD/svg10.dtd">
<svg version="1.0" xmlns="http://www.w3.org/2000/svg"
 width="1000.000000pt" height="1000.000000pt" viewBox="0 0 1000.000000 1000.000000"
 preserveAspectRatio="xMidYMid meet">
<metadata>
Created by potrace 1.14, written by Peter Selinger 2001-2017
</metadata>
<g transform="translate(0.000000,1000.000000) scale(0.100000,-0.100000)"
fill="#000000" stroke="none">
<path d="M3697 7980 c-31 -36 -69 -79 -84 -96 -25 -27 -110 -123 -160 -180
-35 -41 -128 -146 -148 -168 -11 -12 -47 -53 -80 -91 -33 -37 -67 -75 -75 -84
-9 -9 -43 -47 -75 -86 -33 -38 -67 -76 -75 -85 -22 -24 -67 -75 -150 -170 -41
-47 -77 -87 -80 -90 -3 -3 -36 -41 -75 -85 -38 -44 -76 -87 -85 -96 -8 -9 -26
-29 -40 -45 -42 -49 -234 -268 -245 -280 -5 -6 -37 -41 -70 -79 -33 -37 -64
-73 -70 -79 -5 -6 -41 -47 -80 -91 -38 -44 -72 -82 -75 -85 -3 -3 -35 -39 -71
-80 -36 -41 -121 -138 -190 -215 -68 -78 -153 -174 -189 -215 -36 -41 -72 -81
-80 -90 -8 -9 -42 -47 -75 -85 -33 -39 -78 -90 -101 -115 -23 -25 -59 -66 -80
-92 -22 -26 -42 -47 -45 -47 -3 -1 -5 647 -5 1439 1 1433 1 1441 -19 1445 -26
5 -1124 5 -1150 0 -20 -4 -20 -11 -18 -3032 0 -1665 2 -3035 2 -3043 1 -14 67
-16 591 -16 520 1 590 3 591 16 0 8 1 418 1 910 l1 895 66 69 c36 38 84 88
106 111 113 118 368 385 477 499 l124 129 72 -99 c39 -54 75 -103 79 -109 9
-10 186 -256 234 -324 14 -20 79 -110 145 -201 66 -91 126 -175 134 -187 30
-43 215 -298 220 -303 3 -3 50 -68 105 -145 55 -77 103 -144 108 -150 5 -5 44
-59 87 -120 44 -60 140 -193 213 -295 280 -388 402 -557 452 -625 l51 -70 667
0 c367 -1 667 1 667 4 0 4 -92 130 -250 346 -37 50 -93 127 -126 171 -32 45
-105 144 -161 220 -55 77 -160 220 -233 319 -72 99 -138 189 -146 200 -32 43
-482 658 -575 785 -54 74 -202 277 -328 450 -127 173 -234 320 -238 325 -5 6
-76 102 -158 215 -82 113 -175 239 -206 281 -55 73 -57 77 -41 95 9 11 71 82
137 159 67 77 193 223 280 325 88 102 169 196 180 209 11 13 27 31 35 40 9 9
56 63 105 121 103 120 114 133 221 256 68 78 108 123 197 228 10 11 28 32 40
46 12 14 47 54 77 90 30 36 64 74 75 86 11 12 40 45 65 75 25 29 78 91 119
138 107 124 149 173 341 396 189 219 248 288 298 343 48 54 142 169 142 174 0
2 -292 4 -649 4 l-649 0 -55 -66z"/>
<path d="M5762 8036 c-7 -13 -9 -6074 -2 -6085 8 -12 4230 -8 4231 4 0 5 1
237 2 513 1 327 -2 506 -8 510 -5 4 -692 7 -1525 7 l-1515 0 0 795 0 794 1283
0 1282 0 0 481 0 481 -1276 0 c-702 -1 -1279 1 -1284 4 -4 3 -7 334 -7 735
l-1 731 1484 -1 c816 0 1485 2 1485 5 1 3 2 237 3 521 l1 515 -2073 0 c-1424
0 -2075 -3 -2080 -10z"/>
</g>
</svg>
